<?xml version="1.0" encoding="utf-8"?>
<svg width="190" height="190" viewBox="0 0 190 190" fill="none" version="1.2" baseProfile="tiny-ps" xmlns="http://www.w3.org/2000/svg">
  <title>SimeonLogo</title>
  <rect width="190" height="190" fill="white" />
  <path fill-rule="evenodd" d="M166.463 82.8216C165.033 78.9617 163.036 75.3505 160.522 72.084C159.33 70.5412 158.008 69.0549 156.595 67.6816C155.199 66.3253 153.695 65.0594 152.14 63.9178C150.136 62.4598 148.048 61.1995 145.869 60.1427C144.348 59.4024 142.765 58.7525 141.17 58.2099C137.316 56.8932 133.293 56.1585 129.196 56.0172L128.123 55.9776L127.572 55.0565C127.283 54.5761 126.982 54.0957 126.659 53.6267C125.575 52.033 124.315 50.541 122.93 49.1904C121.54 47.8397 120.013 46.6247 118.385 45.5792C114.77 43.2564 110.757 41.7984 106.473 41.2446C97.3529 40.0747 88.4487 43.1378 82.0416 49.6594L76.7979 55.0056L75.6232 54.6044C71.2818 53.1237 66.7871 52.406 62.3209 52.406C51.351 52.406 40.5685 56.7349 32.7085 64.7486C21.6536 76.0456 18.0442 92.9093 23.5263 107.733C24.9564 111.593 26.954 115.204 29.4681 118.47C30.6598 120.013 31.9821 121.494 33.3952 122.873C34.7856 124.223 36.2838 125.489 37.8558 126.637C39.8591 128.1 41.9532 129.355 44.1267 130.406C45.6476 131.146 47.2309 131.796 48.8256 132.339C52.679 133.656 56.7083 134.39 60.8 134.532L61.8725 134.571L62.423 135.492C62.7124 135.973 63.0132 136.453 63.3367 136.922C64.4206 138.516 65.6805 140.008 67.0709 141.358C68.4613 142.715 69.9935 143.924 71.6109 144.97C75.2316 147.292 79.2382 148.75 83.5228 149.304C92.6426 150.474 101.547 147.411 107.948 140.884L113.198 135.537L114.372 135.939C129.383 141.048 146.226 137.069 157.287 125.789C168.348 114.514 171.957 97.6508 166.475 82.8216H166.463ZM151.254 119.928C143.985 127.343 133.866 130.836 123.509 129.49C119.241 128.942 115.07 127.535 111.348 125.405L101.916 135.023C97.9828 139.036 92.6483 141.161 87.24 141.161C84.3287 141.161 81.4003 140.545 78.648 139.279C76.8546 138.454 75.1919 137.374 73.7107 136.069L71.0831 133.757L74.4314 132.729C80.9577 130.728 86.9392 127.083 91.7346 122.2L121.943 91.4117C125.075 88.213 130.24 88.1565 133.452 91.276C135.001 92.7849 135.869 94.8081 135.898 96.9782C135.926 99.1484 135.103 101.194 133.588 102.737L123.515 113.005C129.213 114.509 135.404 112.881 139.609 108.592C144.501 103.607 145.71 96.0514 142.623 89.7897C141.794 88.1113 140.687 86.591 139.337 85.2799C137.98 83.9632 136.352 82.8385 134.746 82.1208C128.401 79.1991 120.87 80.5554 115.978 85.4834L85.7134 116.334C78.4323 123.749 68.3194 127.241 57.9681 125.896L57.8773 125.885C53.0422 125.246 48.5192 123.59 44.4332 120.968C42.549 119.753 40.8352 118.386 39.2745 116.865C37.6969 115.334 36.2724 113.638 35.041 111.83C32.334 107.851 30.5123 103.234 29.7802 98.4646C28.1969 88.1847 31.46 78.0349 38.7354 70.6203C46.0108 63.2057 56.1237 59.7132 66.4807 61.0582C70.7483 61.6064 74.9195 63.0136 78.6423 65.1441L88.0742 55.5255C94.1238 49.3599 103.476 47.6475 111.342 51.2701C113.135 52.0952 114.798 53.1746 116.285 54.48L118.912 56.7914L115.564 57.82C109.038 59.8206 103.056 63.46 98.2609 68.3485L68.0527 99.1371C64.9144 102.336 59.7558 102.392 56.5437 99.2727C53.3316 96.1475 53.2749 91.0048 56.4075 87.8061L66.4807 77.5376C60.7829 76.0343 54.5915 77.6563 50.3863 81.9456C45.4944 86.9301 44.2856 94.486 47.3728 100.748C48.2014 102.432 49.308 103.946 50.6587 105.263C57.1566 111.581 67.6327 111.491 74.0171 105.054L104.288 74.1976C111.563 66.7887 121.67 63.2905 132.027 64.6355C136.953 65.2854 141.476 66.9356 145.562 69.5635C147.452 70.7842 149.166 72.1462 150.721 73.6607C152.299 75.1979 153.723 76.8877 154.954 78.7018C157.661 82.6803 159.483 87.2975 160.215 92.0616C161.799 102.341 158.535 112.491 151.26 119.906L151.254 119.928Z" fill="url(#paint0_linear_847_17)" />
  <defs>
    <linearGradient id="paint0_linear_847_17" x1="21.0009" y1="95.2772" x2="168.995" y2="95.2772" gradientUnits="userSpaceOnUse">
      <stop stop-color="#1320A8" />
      <stop offset="0.99" stop-color="#BB0070" />
    </linearGradient>
  </defs>
</svg>